<svg xmlns="http://www.w3.org/2000/svg" viewBox="0 0 1264.28 1226.56"><defs><style>.cls-1,.cls-2{font-size:150.56px;fill:#128bb5;font-family:Georgia-Bold, Georgia;font-weight:700;}.cls-1{letter-spacing:0.02em;}.cls-3{fill:#50a72c;}</style></defs><g id="Objects"><text class="cls-1" transform="translate(57.51 1183.62)">·ACADÉMICA·</text><text class="cls-2" transform="translate(182.72 458.75) rotate(-68.57)">·</text><text class="cls-2" transform="matrix(0.51, -0.86, 0.86, 0.51, 199.63, 410.66)">S</text><text class="cls-2" transform="translate(247.88 327.07) rotate(-47.37)">E</text><text class="cls-2" transform="translate(320.35 248.15) rotate(-34.61)">C</text><text class="cls-2" transform="matrix(0.93, -0.36, 0.36, 0.93, 407.14, 187.12)">R</text><text class="cls-2" transform="translate(517.63 145.02) rotate(-7.48)">E</text><text class="cls-2" transform="matrix(1, 0.09, -0.09, 1, 623.97, 131.24)">T</text><text class="cls-2" transform="matrix(0.95, 0.31, -0.31, 0.95, 725.24, 139.19)">A</text><text class="cls-2" transform="translate(832.37 173.16) rotate(31.79)">R</text><text class="cls-2" transform="translate(932.17 237.93) rotate(42.91)">Í</text><text class="cls-2" transform="translate(982.48 281.6) rotate(53.68)">A</text><text class="cls-2" transform="translate(1047.56 374.63) rotate(63.56)">·</text><path class="cls-3" d="M1043.85,957.25H223.78a15.64,15.64,0,0,1-15.64-15.64v-114A15.64,15.64,0,0,1,223.78,812h820.07a15.65,15.65,0,0,1,15.63,15.64v114A15.65,15.65,0,0,1,1043.85,957.25ZM239.42,926h788.77V843.28H239.42Z"/><path class="cls-3" d="M992,843.28H275.58A15.64,15.64,0,0,1,260,827.64V765.42a15.64,15.64,0,0,1,15.62-15.65H992a15.65,15.65,0,0,1,15.64,15.65v62.22A15.65,15.65,0,0,1,992,843.28ZM291.23,812H976.36v-31H291.23Z"/><path class="cls-3" d="M992,524.26H275.58A15.63,15.63,0,0,1,260,508.62V446.41a15.64,15.64,0,0,1,15.62-15.65H992a15.65,15.65,0,0,1,15.64,15.65v62.21A15.64,15.64,0,0,1,992,524.26ZM291.23,493H976.36V462.05H291.23Z"/><path class="cls-3" d="M934.42,780.12h-85.1a15.64,15.64,0,0,1-15.64-15.62V508.62A15.63,15.63,0,0,1,849.32,493h85.1a15.65,15.65,0,0,1,15.64,15.63V764.5A15.65,15.65,0,0,1,934.42,780.12Zm-69.48-31.27h53.85V524.26H864.94Z"/><path class="cls-3" d="M418.28,780.12h-85.1a15.64,15.64,0,0,1-15.65-15.62V508.62A15.64,15.64,0,0,1,333.18,493h85.1a15.64,15.64,0,0,1,15.65,15.63V764.5A15.65,15.65,0,0,1,418.28,780.12ZM348.8,748.85h53.84V524.26H348.8Z"/><path class="cls-3" d="M676.35,780.12H591.24a15.63,15.63,0,0,1-15.62-15.62V508.62A15.62,15.62,0,0,1,591.24,493h85.11A15.64,15.64,0,0,1,692,508.62V764.5A15.65,15.65,0,0,1,676.35,780.12Zm-69.47-31.27h53.84V524.26H606.88Z"/><path class="cls-3" d="M1032.09,462.05H235.52a15.65,15.65,0,0,1-7-29.61L626.77,231.88a15.69,15.69,0,0,1,14.07,0l398.29,200.56a15.64,15.64,0,0,1-7,29.61ZM301.35,430.76H966.27L633.8,263.36Z"/><path class="cls-3" d="M437.34,900.25H223.78a15.63,15.63,0,1,1,0-31.26H437.34a15.63,15.63,0,1,1,0,31.26Z"/><path class="cls-3" d="M569.58,404H356a15.64,15.64,0,0,1,0-31.28H569.58a15.64,15.64,0,1,1,0,31.28Z"/><path class="cls-3" d="M587.19,336.18H485.49a15.64,15.64,0,0,1,0-31.27h101.7a15.64,15.64,0,1,1,0,31.27Z"/><path class="cls-3" d="M645.58,336.18H631.87a15.64,15.64,0,1,1,0-31.27h13.71a15.64,15.64,0,1,1,0,31.27Z"/><path class="cls-3" d="M655.5,404H613a15.64,15.64,0,1,1,0-31.28H655.5a15.64,15.64,0,1,1,0,31.28Z"/><path class="cls-3" d="M524.2,900.25H485.34a15.63,15.63,0,1,1,0-31.26H524.2a15.63,15.63,0,1,1,0,31.26Z"/><path class="cls-3" d="M1224.88,1016.15H42.73c-6.27,0-11.33-3.8-11.33-8.49s5.06-8.51,11.33-8.51H1224.88c6.26,0,11.33,3.81,11.33,8.51S1231.14,1016.15,1224.88,1016.15Z"/></g></svg>